<svg fill="#fff" width="20px" height="20px" viewBox="0 0 1069 1069" style="fill-rule:evenodd;clip-rule:evenodd;stroke-linejoin:round;stroke-miterlimit:2;" version="1.1" xml:space="preserve" xmlns="http://www.w3.org/2000/svg" xmlns:serif="http://www.serif.com/" xmlns:xlink="http://www.w3.org/1999/xlink"><g id="SVGRepo_bgCarrier" stroke-width="0"></g><g id="SVGRepo_tracerCarrier" stroke-linecap="round" stroke-linejoin="round"></g><g id="SVGRepo_iconCarrier"> <rect height="1066.67" id="Sim-card-alt1" style="fill:none;" width="1066.67" x="1.117" y="0.245"></rect> <g> <path d="M253.201,211.409l-0,530.502c-0,17.248 14.002,31.25 31.25,31.25c17.247,0 31.25,-14.002 31.25,-31.25l-0,-530.502c-0,-17.248 -14.003,-31.25 -31.25,-31.25c-17.248,-0 -31.25,14.002 -31.25,31.25Z" style="fill-opacity:0.5;"></path> <path d="M1001.71,615.565l-0,-331.988c-0.001,-63.282 -51.301,-114.582 -114.583,-114.582c-166.549,-0 -538.795,-0 -705.344,-0c-63.283,-0 -114.583,51.3 -114.583,114.582l-0,474.46c-0,63.282 51.3,114.583 114.582,114.583l403.254,-0c32.087,-0 62.704,-13.455 84.405,-37.091l81.269,-88.521c9.866,-10.745 23.781,-16.86 38.365,-16.86l98.052,-0c63.282,-0.001 114.582,-51.301 114.583,-114.583Zm-62.5,-321.57l-0,-10.419c-0.001,-28.763 -23.318,-52.081 -52.084,-52.081c0,-0 -705.342,-0 -705.345,-0c-28.763,0 -52.08,23.318 -52.081,52.083c-0,-0 -0,474.457 -0,474.46c0.001,28.764 23.318,52.081 52.083,52.082c-0,-0 403.251,-0 403.255,-0c14.583,-0.001 28.499,-6.116 38.365,-16.861l81.269,-88.521c21.701,-23.636 52.318,-37.09 84.405,-37.09l98.051,-0c28.764,-0.002 52.081,-23.319 52.082,-52.084l-0,-9.069l-154.755,-0c-17.248,-0 -31.25,-14.003 -31.25,-31.25c-0,-17.248 14.002,-31.25 31.25,-31.25l154.755,-0l-0,-62.5l-154.755,-0c-17.248,-0 -31.25,-14.003 -31.25,-31.25c-0,-17.248 14.002,-31.25 31.25,-31.25l154.755,-0l-0,-62.5l-154.755,-0c-17.248,-0 -31.25,-14.003 -31.25,-31.25c-0,-17.248 14.002,-31.25 31.25,-31.25l154.755,-0Z"></path> </g> </g></svg>